<?xml version="1.0" standalone="no"?><!DOCTYPE svg PUBLIC "-//W3C//DTD SVG 1.1//EN" "http://www.w3.org/Graphics/SVG/1.1/DTD/svg11.dtd"><svg t="1693840407438" class="icon" viewBox="0 0 1024 1024" version="1.1" xmlns="http://www.w3.org/2000/svg" p-id="15713" xmlns:xlink="http://www.w3.org/1999/xlink" width="200" height="200"><path d="M963.968 1024 723.84 1024c-33.152 0-60.032-26.88-60.032-60.032 0-33.152 26.88-60.032 60.032-60.032l95.168 0-230.144-230.144 0.064-0.064c-10.432-10.816-16.96-25.472-16.96-41.664 0-33.152 26.88-60.032 60.032-60.032 16.192 0 30.848 6.528 41.664 16.96l0.064-0.064 230.144 230.208L903.872 723.84c0-33.152 26.88-60.032 60.032-60.032 33.152 0 60.032 26.88 60.032 60.032l0 240.128C1024 997.12 997.12 1024 963.968 1024zM963.968 360.128c-33.152 0-60.032-26.88-60.032-60.032L903.936 204.928l-230.144 230.144-0.064-0.064c-10.816 10.432-25.472 16.96-41.664 16.96-33.152 0-60.032-26.88-60.032-60.032 0-16.192 6.464-30.848 16.96-41.664L588.928 350.144l230.144-230.144L723.84 120c-33.152 0-60.032-26.88-60.032-60.032S690.688 0 723.84 0l240.128 0C997.12 0 1024 26.816 1024 60.032l0 240.128C1024 333.248 997.12 360.128 963.968 360.128zM435.072 673.728l-230.144 230.144L300.16 903.872c33.152 0 60.032 26.88 60.032 60.032C360.192 997.12 333.312 1024 300.16 1024L60.032 1024C26.88 1024 0 997.12 0 963.904L0 723.84c0-33.152 26.88-60.032 60.032-60.032 33.152 0 60.032 26.88 60.032 60.032l0 95.168 230.144-230.208 0.064 0.064c10.816-10.432 25.472-16.96 41.664-16.96 33.152 0 60.032 26.88 60.032 60.032C451.968 648.256 445.504 662.912 435.072 673.728L435.072 673.728zM391.936 451.968c-16.192 0-30.848-6.464-41.664-16.96L350.208 435.072 120.064 204.928l0 95.168c0 33.152-26.88 60.032-60.032 60.032C26.88 360.128 0 333.248 0 300.096L0 60.032C0 26.816 26.88 0 60.032 0L300.16 0c33.152 0 60.032 26.88 60.032 60.032S333.312 120.064 300.16 120.064L204.928 120.064l230.144 230.144L435.008 350.272C445.504 361.024 451.968 375.68 451.968 391.872 451.968 425.088 425.088 451.968 391.936 451.968z" p-id="15714"></path></svg>