<?xml version="1.0" standalone="no"?><!DOCTYPE svg PUBLIC "-//W3C//DTD SVG 1.1//EN" "http://www.w3.org/Graphics/SVG/1.1/DTD/svg11.dtd"><svg t="1693840302312" class="icon" viewBox="0 0 1024 1024" version="1.1" xmlns="http://www.w3.org/2000/svg" p-id="13190" xmlns:xlink="http://www.w3.org/1999/xlink" width="200" height="200"><path d="M64 118.144l0 787.648 0 0C64 971.072 114.112 1024 176 1024c21.824 0 42.112-6.592 59.328-17.984l0 0 513.792-305.408 0 215.552c0 65.28 36.992 107.776 98.816 107.776S960 971.072 960 905.856L960 118.144C960 52.928 909.824 0 848 0s-98.816 42.56-98.816 107.776l0 269.504L235.392 17.984l0 0C218.112 6.592 197.824 0 176 0 114.112 0 64 52.928 64 118.144L64 118.144z" p-id="13191"></path></svg>