<?xml version="1.0" standalone="no"?><!DOCTYPE svg PUBLIC "-//W3C//DTD SVG 1.1//EN" "http://www.w3.org/Graphics/SVG/1.1/DTD/svg11.dtd"><svg t="1693840381325" class="icon" viewBox="0 0 1024 1024" version="1.1" xmlns="http://www.w3.org/2000/svg" p-id="15576" xmlns:xlink="http://www.w3.org/1999/xlink" width="200" height="200"><path d="M764.7 99.3H511.3c-35.3 0-64 28.7-64 64s28.7 64 64 64h253.3c17.6 0 32 14.4 32 32v252.9c0 35.3 28.7 64 64 64s64-28.7 64-64V259.3c0.1-88.2-71.7-160-159.9-160zM512 796.7H259.3c-17.6 0-32-14.4-32-32V511.8c0-35.3-28.7-64-64-64s-64 28.7-64 64v252.9c0 88.2 71.8 160 160 160H512c35.3 0 64-28.7 64-64 0-35.4-28.7-64-64-64z" p-id="15577"></path></svg>