<?xml version="1.0" standalone="no"?><!DOCTYPE svg PUBLIC "-//W3C//DTD SVG 1.1//EN" "http://www.w3.org/Graphics/SVG/1.1/DTD/svg11.dtd"><svg t="1693841391376" class="icon" viewBox="0 0 1024 1024" version="1.1" xmlns="http://www.w3.org/2000/svg" p-id="47279" xmlns:xlink="http://www.w3.org/1999/xlink" width="200" height="200"><path d="M511.4368 818.2272c-245.55008 0-444.8768-295.6544-444.8768-305.68448 0-11.11552 199.32672-306.7648 444.8768-306.7648 246.6304 0 449.31584 308.4544 445.96224 306.7648-3.34336-2.77504-199.32672 305.68448-445.96224 305.68448z m-1.68448-514.47296c-104.12544 0-188.18048 90.77248-188.18048 203.78624 0 111.9232 84.05504 203.21792 188.18048 203.21792 104.66304 0 189.30688-91.29472 189.30688-203.21792-0.00512-113.01376-84.64384-203.78624-189.30688-203.78624z m-0.54784 292.86912c-49.55648 0-89.66656-43.41248-89.66656-96.32256 0-52.89984 40.10496-95.77472 89.66656-95.77472 49.54112 0 89.06752 42.87488 89.06752 95.77472 0.00512 52.9152-39.5264 96.32256-89.06752 96.32256z" fill="#333333" p-id="47280"></path></svg>