<?xml version="1.0" standalone="no"?><!DOCTYPE svg PUBLIC "-//W3C//DTD SVG 1.1//EN" "http://www.w3.org/Graphics/SVG/1.1/DTD/svg11.dtd"><svg t="1693840313429" class="icon" viewBox="0 0 1024 1024" version="1.1" xmlns="http://www.w3.org/2000/svg" p-id="13464" xmlns:xlink="http://www.w3.org/1999/xlink" width="200" height="200"><path d="M884.100959 1024 765.031192 1024C694.859409 1024 638.02344 967.164031 638.02344 896.992248L638.02344 127.007752C638.02344 56.835969 694.859409 0 765.031192 0L884.100959 0C954.209238 0 1011.108711 56.835969 1011.108711 127.007752L1011.108711 896.992248C1011.108711 967.164031 954.209238 1024 884.100959 1024ZM258.968804 1024 139.899037 1024C69.727254 1024 12.891285 967.164031 12.891285 896.992248L12.891285 127.007752C12.891285 56.835969 69.727254 0 139.899037 0L258.968804 0C329.140587 0 385.976556 56.835969 385.976556 127.007752L385.976556 896.992248C385.976556 967.164031 329.140587 1024 258.968804 1024Z" p-id="13465"></path></svg>